<svg xmlns="http://www.w3.org/2000/svg"><style>:root svg:not(:target){display:none}</style><svg viewBox="0 0 134 100" fill="none" id="cat_back-1"><circle cx="69" cy="50" r="50" fill="#68B738"></circle><g clip-path="url(#cat_back-1_0)"><path d="M123.12 25.76a15.2 15.2 0 0 1 4.5-4.6c1-.7 1.6-.7 2.2.6.8 1.9 1.5 3.9.9 6a2.29 2.29 0 0 0 .4 2.1c.6.8 1.1 1.6 1.6 2.3a6.27 6.27 0 0 1 .9 6.2 5.38 5.38 0 0 0-.2 3.1c.2.99.2 2 0 3a3.75 3.75 0 0 1-2.7 3.2 5.21 5.21 0 0 0-3.2 2 1.05 1.05 0 0 1-.9.5c-1.2.2-4.2-2.5-4.2-3.7v-.6c.1-3.6-.1-3.9-3.4-5.4a4.4 4.4 0 0 1-1.8-1.2c-.6-.8-1.4-.7-2.3-.4-.9.3-1.4.9-1.3 1.9.3 2.42.4 4.86.3 7.3 0 .27.07.55.2.8 3.1 4.5 4.3 9.8 5.8 14.9 1.2 3.9 3.4 6 7.4 6.3.64.05 1.27.15 1.9.3a4.16 4.16 0 0 1 3.4 3.2c.7 2.1.3 2.6-1.8 2.6h-6.5a3.24 3.24 0 0 1-2.3-.8 11.71 11.71 0 0 0-3.4-2 7.26 7.26 0 0 1-3.4-2.6 28.58 28.58 0 0 0-4-4.5c-2.8-2.9-5.8-5.7-8.4-8.7a11.38 11.38 0 0 1-3.2-7.6c0-.9-.2-1.3-1.2-.9-.3.19-.65.3-1 .3-2.8 0-4.2 1.7-5.2 4.2-.9 2.1-2.1 4.1-3.2 6.2a10.4 10.4 0 0 0-1 4.2c0 2.4.6 3.2 2.8 4 1.4.5 2.7 1 3.4 2.4.8 1.6.6 2-1.1 2.1h-6.8a1.88 1.88 0 0 1-1.9-1.1l-1.8-3a6.05 6.05 0 0 1-.7-5.4c.43-1.74.47-3.55.1-5.3a8.42 8.42 0 0 1 1.7-7c.6-.7.6-1-.4-1.2a50.07 50.07 0 0 1-11.87-4.13.1.1 0 0 1-.03-.07c-3.2-1.2-3.8-1-4.7 2.3-.8 2.8-1.6 5.6-2.2 8.5-.7 3.2.1 6.2 1.1 9.2.4 1.2 1.6 1.1 2.5 1.4 2 .6 3.7 1.4 4.5 3.5.7 1.6.6 1.8-1.1 1.8-1.7 0-3.4-.1-5.2 0a6.7 6.7 0 0 1-4.2-1.4c-4.8-3.2-6.2-8.1-6.6-13.4-.2-3.3-2-5.9-4.1-8.4-.4-.5-.8-.7-1.4-.3a44.32 44.32 0 0 1-6.7 3 26.71 26.71 0 0 0-12.2 8.8 10.63 10.63 0 0 0-2.2 5.1c-.3 1.8.2 2.6 2 3.1s2.7 1.5 2.9 3.4c.1.8-.2 1.2-1 1.2h-8.1a1.65 1.65 0 0 1-1.3-.8 8.56 8.56 0 0 1-1.9-5.5c-.05-3.46.25-6.91.9-10.3a6.3 6.3 0 0 1 3.4-4.8c5.9-2.8 9-8.1 11.8-13.6.6-1.1.1-1.3-.9-1.2-2.8.39-5.45 1.49-7.7 3.2a70.62 70.62 0 0 0-8.3 7.1 16.67 16.67 0 0 1-10.3 4.9c-7.3.4-10.7-3.7-10.4-10.3a9.67 9.67 0 0 1 2.4-6.1 4.25 4.25 0 0 1 4.5-1.5c1.5.4 1.9 1.2 1.3 2.7-.3.6-.7 1.1-1 1.7a7.5 7.5 0 0 0-1 2c-1.1 3 .4 5.1 3.5 5.4 3.3.3 6-1.1 8.5-3.1 3.01-2.41 5.7-5.2 8-8.3a20.79 20.79 0 0 1 14.4-8.1c2.3-.3 4.3-1.3 6.5-1.9a41.5 41.5 0 0 1 12.7-1.8 13 13 0 0 0 5.8-1.1c4.9-2 10-2 15.1-1 4 .8 8 1.8 11.9 2.8 2.32.43 4.7.36 7-.2a67.79 67.79 0 0 1 13.4-2c2.96-.15 5.91.44 8.6 1.7 2 .9 2 .9 1.5 2.8Z" fill="#000"></path></g><defs><clipPath id="cat_back-1_0"><path fill="#fff" transform="translate(0 20)" d="M0 0h134v56h-134z"></path></clipPath></defs></svg><svg viewBox="0 0 200 211" fill="none" id="cat_back-2"><circle cx="100" cy="111" r="100" fill="#68B738"></circle><g clip-path="url(#cat_back-2_0)"><path d="M139.68 0h-.76a7 7 0 0 0-2.92 3.18c-1.13 2.16-2 4.45-2.58 6.82a3.26 3.26 0 0 1-2.96 2.68 14.67 14.67 0 0 0-10.46 7.56 54.62 54.62 0 0 0-3.7 8c-2.84 7.36-5.02 14.96-7.7 22.38-1.26 3.38-1.32 3.38-5.12 3.38-4.54 0-4.22-.7-4.28 4.3 0 1.58.48 2.38 2.16 2.3.52 0 1.3-.26 1.5.42.2.68-.48.98-.88 1.38a18 18 0 0 1-8.66 4.88c-3.8 1.02-7.68 1.82-11.38 3.06-9.5 3.18-18.28 7.62-25.12 15.14a56 56 0 0 0-9.48 15.68c-7.34 17.28-10.9 35.48-13.66 53.86a375.77 375.77 0 0 0-2.92 26c-.36 4.28-.76 8.62-.76 12.98h66.66a4.36 4.36 0 0 0-.46-2.56 10 10 0 0 0-7.66-6.14c-1.4-.32-1.56-.74-.7-1.84a20.7 20.7 0 0 0 3.18-6.2c3.26-9.62 4.52-19.66 6.1-29.6a60 60 0 0 1 6.88-21.66 43.21 43.21 0 0 1 11.18-12.74c1.66-1.26 1.72-1.26 2 .88.2 1.42.24 2.88.34 4.32.6 9.45.48 18.93-.36 28.36-.75 7.31-.86 14.67-.3 22 .8 8.5 2.31 16.93 4.54 25.18h26.6a10.82 10.82 0 0 0-8.48-8.88 18 18 0 0 0-7.52.4c-1.2.28-1.7 0-1.8-1.3a112.73 112.73 0 0 1 2-31.64c2.67-12 4.71-24.14 6.12-36.36a35.5 35.5 0 0 1 4.56-14c2.38-4.24 4.46-8.64 6.8-12.9a11.75 11.75 0 0 0 .84-10.38c-.54-1.42-1.06-2.86-1.72-4.22-2-3.9-4-7.76-5.84-11.7-.98-2-.76-2.24 1.42-2.3 3.26 0 3.26 0 3.32-3.28v-1.32c0-1.38-.52-2.14-2-2h-3.04c-1.38 0-1.78-.58-1.44-2a12.48 12.48 0 0 1 10.26-8.86 44 44 0 0 1 13.24.86 2 2 0 0 0 2.5-1.28c.8-2 1.68-4 2.58-6a2 2 0 0 0-.2-2.28c-6.4-8.12-13.34-15.7-22.8-20.56a2.98 2.98 0 0 1-1.76-2.24 39.16 39.16 0 0 0-2.54-8.32 7 7 0 0 0-2.82-3.44Z" fill="#000"></path></g><defs><clipPath id="cat_back-2_0"><path fill="#fff" transform="translate(30)" d="M0 0h140v194h-140z"></path></clipPath></defs></svg><svg viewBox="0 0 100 106" fill="none" id="cat_back"><circle cx="50" cy="56" r="50" fill="#68B738"></circle><g clip-path="url(#cat_back_0)"><path d="M69.84 0h-.38a3.5 3.5 0 0 0-1.46 1.59c-.56 1.08-1 2.23-1.29 3.41a1.63 1.63 0 0 1-1.48 1.34 7.34 7.34 0 0 0-5.23 3.78 27.31 27.31 0 0 0-1.85 4c-1.42 3.68-2.51 7.48-3.85 11.19-.63 1.69-.66 1.69-2.56 1.69-2.27 0-2.11-.35-2.14 2.15 0 .79.24 1.19 1.08 1.15.26 0 .65-.13.75.21.1.34-.24.49-.44.69a9 9 0 0 1-4.33 2.44c-1.9.51-3.84.91-5.69 1.53-4.75 1.59-9.14 3.81-12.56 7.57a28 28 0 0 0-4.74 7.84c-3.67 8.64-5.45 17.74-6.83 26.93-.65 4.31-1.11 8.64-1.46 13-.18 2.14-.38 4.31-.38 6.49h33.33a2.1 2.1 0 0 0-.23-1.28 5 5 0 0 0-3.83-3.07c-.7-.16-.78-.37-.35-.92.7-.94 1.24-1.98 1.59-3.1 1.63-4.81 2.26-9.83 3.05-14.8a30 30 0 0 1 3.44-10.83 21.6 21.6 0 0 1 5.59-6.37c.83-.63.86-.63 1 .44.1.71.12 1.44.17 2.16.3 4.72.24 9.46-.18 14.18a61.67 61.67 0 0 0-.15 11c.4 4.25 1.16 8.47 2.27 12.59h13.3a5.41 5.41 0 0 0-4.24-4.44 9 9 0 0 0-3.76.2c-.6.14-.85 0-.9-.65a56.35 56.35 0 0 1 1-15.82c1.33-6 2.36-12.07 3.06-18.18a17.75 17.75 0 0 1 2.28-7c1.19-2.12 2.23-4.32 3.4-6.45a5.87 5.87 0 0 0 .42-5.19c-.27-.71-.53-1.43-.86-2.11-1-1.95-2-3.88-2.92-5.85-.49-1-.38-1.12.71-1.15 1.63 0 1.63 0 1.66-1.64v-.66c0-.69-.26-1.07-1-1h-1.52c-.69 0-.89-.29-.72-1a6.24 6.24 0 0 1 5.13-4.43 22 22 0 0 1 6.62.43 1 1 0 0 0 1.25-.64c.4-1 .84-2 1.29-3a1 1 0 0 0-.1-1.14c-3.2-4.06-6.67-7.85-11.4-10.28a1.49 1.49 0 0 1-.88-1.12 19.6 19.6 0 0 0-1.27-4.16 3.5 3.5 0 0 0-1.41-1.72Z" fill="#000"></path></g><defs><clipPath id="cat_back_0"><path fill="#fff" transform="translate(15)" d="M0 0h70v97h-70z"></path></clipPath></defs></svg><svg viewBox="0 0 121 227" fill="none" id="four"><path d="M66.32 227v-60.76h-65.8v-31.36l59.08-134.68h35.28v139.44h25.48v26.6h-25.48v60.76h-28.56Zm-36.96-87.36h36.96v-103.04l-36.96 103.04Z" fill="#F2F2F2"></path></svg><svg viewBox="0 0 26 29" fill="none" id="icon-powder"><path d="M10.88 0c-1.64 0-2.9 1.36-2.9 3.08s1.26 3.08 2.9 3.08c1.63 0 2.9-1.36 2.9-3.08s-1.27-3.08-2.9-3.08Zm0 1.18c1 0 1.72.84 1.72 1.9 0 1-.8 1.9-1.72 1.9-1 0-1.73-.84-1.73-1.9 0-1 .78-1.9 1.72-1.9Zm-10.88 23.56c0 1.18.4 2.18 1.36 3 1 .84 2.17.77 2.17.77h19.04c.77 0 1.8-.38 2.62-1.45.85-1 .8-2.36.8-2.36v-17.21c0-.44-.12-.6-.75-.6-.64 0-.69.27-.69.59v17.22c-.02.3-.07 1.08-.74 1.72-.74.62-1.45.54-1.45.54s-18.13 0-19.03-.03a2.14 2.14 0 0 1-1.45-.9c-.51-.73-.41-1.63-.41-1.63v-17.22c0-.46-.24-.64-.73-.64s-.74.18-.74.58v17.62Zm16.31-16.31c-1.08.23-2.17.38-4.26 2.35-2.08 2-3.62 1.9-5.16 1.82-1.54-.1-3.17-1.54-3.45-1.9-.33-.36-.9-.12-1.08.11-.16.24-.16.64.1 1 1.27 1.18 2.45 2.08 4.72 2.26a7.5 7.5 0 0 0 5.89-2.26c1.45-1.45 2.17-1.72 3.26-1.9a6.3 6.3 0 0 1 5.08 1.26c1 1.1 1.26.78 1.54.48.54-.72-.23-1.27-1.1-1.9a7.24 7.24 0 0 0-5.52-1.28l-.02-.04Zm-9.06 7.16c-1.18 0-2.08 1-2.08 2.26 0 1.27.9 2.27 2.08 2.27 1.18 0 2.08-1 2.08-2.27s-.9-2.26-2.08-2.26Zm11.78.78c-1.54 0-2.8 1.36-2.8 2.99 0 1.63 1.26 2.99 2.8 2.99 1.54 0 2.81-1.36 2.81-3 0-1.62-1.27-2.98-2.8-2.98Zm0 1.45c.8 0 1.45.7 1.45 1.54a1.5 1.5 0 0 1-1.45 1.54c-.8 0-1.45-.7-1.45-1.54 0-.86.65-1.54 1.45-1.54Z" fill="#fff"></path></svg><svg viewBox="0 0 26 31" fill="none" id="icon-time"><path d="M5.54 0c-1.06 0-1.06 1.58 0 1.58h6.64v1.6c-6.8.44-12.18 6.23-12.18 13.3 0 4.02 1.74 7.64 4.5 10.07.47.43.54 1.18.1 1.64l-1.53 1.55c-.74.69.36 1.75 1.03 1l2-2.03c.35-.34.87-.43 1.3-.21a12.7 12.7 0 0 0 11.07.06c.43-.21.96-.13 1.3.21l1.94 1.97c.68.64 1.65-.31 1.04-1l-1.45-1.48c-.44-.45-.38-1.2.1-1.63a13.46 13.46 0 0 0 4.6-10.16c0-7.07-5.41-12.87-12.22-13.28v-1.6h6.64c1.06 0 1.06-1.59 0-1.59h-14.88Zm-4.1 16.47a11.7 11.7 0 0 1 11.56-11.82c6.38 0 11.55 5.3 11.55 11.82 0 6.55-5.17 11.85-11.55 11.85-6.38 0-11.57-5.3-11.57-11.85Zm10.75-8.09c0-1.1 1.66-1.1 1.66 0v8.63a.84.84 0 0 1-.85.85.81.81 0 0 1-.8-.8v-8.68Zm-4.97 2.62a1.16 1.16 0 0 0 1.16-1.15 1.15 1.15 0 0 0-1.16-1.15 1.16 1.16 0 0 0-1.05 1.14 1.15 1.15 0 0 0 1.05 1.15Zm11.55 0a1.16 1.16 0 0 0 1.16-1.15 1.15 1.15 0 0 0-1.16-1.15 1.16 1.16 0 0 0-1.05 1.14 1.15 1.15 0 0 0 1.05 1.15Zm-10.4 12.59c0 1.53-2.31 1.53-2.31 0s2.32-1.53 2.32 0Zm4.63 3.44a1.17 1.17 0 0 0 1.17-.68 1.14 1.14 0 0 0-.7-1.56 1.17 1.17 0 0 0-1.22.32 1.15 1.15 0 0 0 .75 1.92Zm-8.09-10.39a1.14 1.14 0 0 1-.68 1.17 1.17 1.17 0 0 1-1.57-.7 1.14 1.14 0 0 1 .32-1.2 1.16 1.16 0 0 1 1.93.73Zm17.33 1.15a1.16 1.16 0 0 0 1.17-.68 1.14 1.14 0 0 0-.7-1.55 1.17 1.17 0 0 0-1.22.32 1.15 1.15 0 0 0 .75 1.91Zm-2.31 5.8c0 1.53-2.32 1.53-2.32 0s2.32-1.53 2.32 0Z" fill="#fff"></path></svg><svg viewBox="0 0 25 30" fill="none" id="icon_eat"><path fill-rule="evenodd" clip-rule="evenodd" d="M18.62.08a1 1 0 0 1 1.09.21c.9.91 2.1 2.88 3.06 5.92a42.6 42.6 0 0 1 1.73 12.79 1 1 0 0 1-1 1h-3.5v9a1 1 0 1 1-2 0v-28a1 1 0 0 1 .62-.92Zm1.38 17.92h2.5a39.62 39.62 0 0 0-1.64-11.19 22.4 22.4 0 0 0-.86-2.3v13.49Zm-14-18a1 1 0 0 1 1 1v28a1 1 0 1 1-2 0v-28a1 1 0 0 1 1-1Z" fill="#fff"></path><path fill-rule="evenodd" clip-rule="evenodd" d="M1.5 0a1 1 0 0 1 1 1v5.5c0 .56.2 1.32.7 1.92.48.56 1.31 1.08 2.8 1.08a1 1 0 1 1 0 2 5.41 5.41 0 0 1-4.33-1.8 5.07 5.07 0 0 1-1.17-3.2v-5.5a1 1 0 0 1 1-1Z" fill="#fff"></path><path fill-rule="evenodd" clip-rule="evenodd" d="M10.5 0a1 1 0 0 0-1 1v5.5c0 .56-.2 1.32-.7 1.92-.48.56-1.31 1.08-2.8 1.08a1 1 0 0 0 0 2 5.4 5.4 0 0 0 4.33-1.8 5.07 5.07 0 0 0 1.17-3.2v-5.5a1 1 0 0 0-1-1Z" fill="#fff"></path></svg><svg viewBox="0 0 30 32" fill="none" id="icon_leaf"><g clip-path="url(#icon_leaf_0)"><path d="M27.78 2.77a.95.95 0 0 0-.92-.77c-4.94.03-16.95.92-21.8 8.38-2.51 3.88-2.73 8.91-.64 14.96l.07.13a25.93 25.93 0 0 0-1.04 3.32 1 1 0 0 0 .72 1.19l.2.02c.43 0 .82-.32.91-.79.02-.1 2.4-10.37 10.85-16.38.44-.3.55-.93.26-1.38a.9.9 0 0 0-1.3-.28c-4.78 3.4-7.73 8-9.47 11.65-1.24-4.57-.91-8.37.99-11.3 3.74-5.76 12.62-7.15 17.98-7.45-1.15 1.8-2.41 5.1-2.41 10.93 0 3.12-.83 5.52-2.47 7.14-2.62 2.6-6.88 2.83-10 2.58-.5-.04-.96.38-1 .93a.98.98 0 0 0 .87 1.07c.62.05 1.28.08 1.98.08 3.17 0 6.87-.66 9.43-3.2 2.03-2 3.06-4.9 3.06-8.6 0-9.1 3.22-11.1 3.23-11.1.4-.21.6-.68.5-1.13Z" fill="#fff"></path></g><defs><clipPath id="icon_leaf_0"><path fill="#fff" d="M0 0h30v32h-30z"></path></clipPath></defs></svg><svg viewBox="0 0 32 12" fill="none" id="link"><path stroke="#000" stroke-width="2" d="M0 6h18"></path><path d="m24 6-6.75 5.2v-10.4l6.75 5.2Z" fill="#000"></path></svg><svg viewBox="0 0 33 38" fill="none" id="logo-mobile"><g clip-path="url(#logo-mobile_0)"><path d="M6.01 20.93v-2.28c6.62-.93 13.3-1.37 19.98-1.34 0 .6 0 1.22-.06 1.84a24.9 24.9 0 0 1 5.94-1.84 16.77 16.77 0 0 0-6.77-8.29 16.25 16.25 0 0 0-19.92 2.08 16.95 16.95 0 0 0-5 9.5l5.83.33Zm20.97 3.55c-1.15 1.3-1.38 1.21-1.38 3.49v9.27a16.7 16.7 0 0 0 5.43-6.05 17.08 17.08 0 0 0 1.97-7.95 17.3 17.3 0 0 0-.32-3.13 32.86 32.86 0 0 0-5.7 4.37Zm-20.68 1.51s-3.75-1.46-5.14-1.85a8.33 8.33 0 0 0-1.16-.29c.1 2.92.96 5.76 2.46 8.24a16.63 16.63 0 0 0 6.14 5.91l-2.3-12.01Z" fill="#FDC305"></path><path d="M26.04 17.3a92.52 92.52 0 0 0-1.39-16.64s-.14-1.3-.88-.25c-.58 1.27-.98 2.6-1.19 3.99a68.3 68.3 0 0 0-12.65.34c-.78-2.72-2.16-3.98-2.82-3.73-.66.25-.71 3.34-.71 3.34l-.33 14.25a139.1 139.1 0 0 1 19.97-1.3Z" fill="#F06351"></path><path d="M12.3 14.15c0-.1.98.68 1.39.92.4.25.6.43.6.6 0 .17-.27.34-.62.34-.36 0-.9-.12-1-.27h1.23c-.6-.45-1.15-1-1.6-1.6Zm7.4.11-1.08 1.34c0 .06-.17.35.18.3.4-.06.81-.16 1.2-.29.11 0 .08-.2-.1-.17-.18.02-.69.05-1 .11l.84-1.27s.07-.13-.04-.02Zm-3.11 6.15c.46-.2.84-.56 1.08-1.01.28-.66 0-.92-.44-1.01-.6-.11-1.2.01-1.72.34-.39.37-.34.73-.05 1.01.35.27.73.5 1.13.67Z" fill="#000"></path><path d="M16.2 21.67a1.7 1.7 0 0 1-1.45.99 2.1 2.1 0 0 1-1.46-.43c-.2-.12-.37-.27-.52-.45-.1-.1-.22-.2-.36-.26 0 0 .74 4.14 2.54 4.8 1.8.66 2.12-.76 2.18-1.14a5.76 5.76 0 0 0-.8-3.27c-.03-.3-.04-.1-.14-.24Z" fill="#F06351"></path><path d="M14.57 22.82a3.36 3.36 0 0 1-2.35-1.53.14.14 0 0 1 .09-.13.14.14 0 0 1 .15.03c.5.7 1.25 1.17 2.09 1.31a2.04 2.04 0 0 0 1.61-1l.14-.2.1.21s.37.77 1 .8c.62.05 1.03-.4 1.59-1.28a.14.14 0 0 1 .2 0c.03.02.05.05.06.09 0 .03 0 .07-.02.1-.63 1.02-1.25 1.46-1.86 1.42a1.52 1.52 0 0 1-1.1-.77 2.25 2.25 0 0 1-1.7.95Z" fill="#000"></path><path d="M25.99 19.12a58.7 58.7 0 0 0-5.02 5.24 31.58 31.58 0 0 1-5.24 4.94c-.22-.53-1.6-1.52-1.6-1.52s-3.1-2.17-5.14-3.86a34.1 34.1 0 0 1-3.1-3.04l-1.98-.1a22.39 22.39 0 0 0 11.89 8.88c.85-.14 3.24-1.87 5.02-3.29a58.15 58.15 0 0 0 5.88-5.95c.5-.6.88-1.28 1.13-2.02-1.09.4-1.84.72-1.84.72Z" fill="#F06351"></path></g><defs><clipPath id="logo-mobile_0"><path fill="#fff" d="M0 0h33v38h-33z"></path></clipPath></defs></svg><svg viewBox="0 0 70 59" fill="none" id="logopic"><path d="M59.74 23.8a25.42 25.42 0 0 0-8.03-10.37 25.63 25.63 0 0 0-35.72 4.57 25.33 25.33 0 0 0 4.35 35.54 25.63 25.63 0 0 0 12.1 5.18c-.58-2.07-1.17-4.36-1.69-6.8 1.5.98 3.1 1.83 4.75 2.54 0 0 .12 2.14.28 4.53 1.78.03 3.56-.13 5.32-.47a2.1 2.1 0 0 1 0-.75c.29-1.85 1.08-5.2 1.24-7.35a15.1 15.1 0 0 0 2.9-3.68l-.06.44c-.55 4.22-1.7 8.74-2.4 9.98-.22.42-.5.8-.83 1.15a25.65 25.65 0 0 0 16.93-13.16 25.32 25.32 0 0 0 .86-21.34Zm-1.46 3.77c-.44.42-1.35.71-1.5-.58-.15-1.29-.19-2.2-.19-2.2s-1.93-3.4-2.64-3.43c-.72-.04-5.82 3.44-7.17 4.96-1.16 1.28-1.4 1.19-1.4 3.44 0 1.7.23 8.1.1 13l-8.13 2.15c-2.55.73-5.15 1.3-7.78 1.71l-1-5.78h-.14l-2.56-13.07s-3.8-1.42-5.2-1.81a3.77 3.77 0 0 0-3.99.62 5.03 5.03 0 0 0-1.72 3.82c.2.46.37.95.47 1.44.05.48-1.2.43-2 .43-.79 0-.9-1.43-.28-3.1a22.1 22.1 0 0 1 1.82-3.72 11.78 11.78 0 0 1 2.06-2.86s.14-.34 1.25-.24c1.1.1 7.26.42 7.26.42l.05-2.25c6.7-.92 13.44-1.36 20.2-1.33v1.82a22.58 22.58 0 0 1 8.12-1.98.91.91 0 0 1 .77.38c.33.43 2.4 2.98 2.64 3.34a27.6 27.6 0 0 1 1.82 2.98 6.17 6.17 0 0 1-.86 1.83Z" fill="#FDC305"></path><path d="m56.33 21.5 1 1.27a27.6 27.6 0 0 1 1.82 2.98 6.17 6.17 0 0 1-.85 1.77c-.44.42-1.35.71-1.5-.58-.15-1.29-.2-2.14-.2-2.14s-1.94-3.4-2.65-3.44c-.72-.04-5.82 3.44-7.17 4.96-1.16 1.28-1.4 1.19-1.4 3.44 0 1.49.18 6.6.14 11.14 1.8.2 4.46.7 5.25 1.86 0 0-.29-7.12 7.8-3.39 0 0 .28-9.71 11.43-7.22a43.58 43.58 0 0 0-13.67-10.65Zm-10.5-2.3c.04-5.5-.43-11-1.4-16.4 0 0-.15-1.3-.87-.24-.6 1.26-1 2.6-1.2 3.97a71.13 71.13 0 0 0-12.79.33c-.82-2.72-2.21-3.96-2.88-3.64-.67.33-.75 3.26-.75 3.26l-.33 14.04c6.7-.92 13.45-1.36 20.22-1.33Z" fill="#F06351"></path><path d="M45.25 46.74c.13-1.06.2-2.47.24-4.03l-8.14 2.16a64.15 64.15 0 0 1-7.78 1.75l1.11 4.96c0 .11 0 .22.07.33 1.5.97 3.1 1.82 4.75 2.53a42.36 42.36 0 0 0 6.86-4.1v.06a15.11 15.11 0 0 0 2.89-3.66Z" fill="#E55645"></path><path d="M31.93 16.09c-.05-.1 1 .67 1.4.91.41.24.61.42.61.59 0 .17-.26.33-.62.33s-.91-.11-1-.25c-.07-.14.6 0 .94 0h.3a8.04 8.04 0 0 1-1.63-1.58Zm7.48.11s-1 1.27-1.09 1.33c-.09.06-.17.33.2.29.4-.07.81-.16 1.2-.28.12-.06.08-.2-.11-.18-.19.02-.68.05-1 .1l.85-1.25s.03-.12-.05-.01Zm-3.13 6.06c.46-.2.84-.55 1.08-1 .28-.65 0-.9-.43-.99-.6-.1-1.23.02-1.75.34-.39.37-.34.73 0 1 .34.26.7.48 1.1.65Z" fill="#000"></path><path d="M35.92 23.5c-.12.23-.27.44-.46.6-.29.23-.63.36-1 .38-.55.05-1.1-.1-1.54-.44a2 2 0 0 1-.52-.44 1 1 0 0 0-.36-.25s.74 4.08 2.56 4.73c1.82.66 2.16-.75 2.2-1.13a5.56 5.56 0 0 0-.81-3.21c0-.3-.02-.1-.07-.23Z" fill="#F06351"></path><path d="M34.22 24.64a3.5 3.5 0 0 1-2.34-1.42.15.15 0 0 1 0-.2.14.14 0 0 1 .1-.04.14.14 0 0 1 .1.04 3.2 3.2 0 0 0 2.1 1.3 2.11 2.11 0 0 0 1.64-.99l.14-.19.1.22s.38.75 1 .8c.61.03 1.05-.42 1.62-1.29a.14.14 0 0 1 .24.16c-.66.97-1.3 1.44-1.89 1.4a1.55 1.55 0 0 1-1.11-.72 2.25 2.25 0 0 1-1.7.93Z" fill="#000"></path><path d="M36.18 38a3.73 3.73 0 0 0 3.74-3.73 3.73 3.73 0 0 0-3.74-3.72 3.73 3.73 0 0 0-3.74 3.72 3.73 3.73 0 0 0 3.74 3.72Z" fill="#FDC305"></path><path d="m41.14 31.25-3.13 1.3 1.15-5.59-7.48 9.68 3.12-1.3-1.15 5.6 7.49-9.7Zm-7.38 3.8 4.15-5.37-.8 3.97 1.99-.82-4.18 5.38.8-3.97-1.96.8Zm-1.39-1.46c.61 0 1.11-.5 1.11-1.11a1.11 1.11 0 1 0-2.23 0c0 .6.5 1.1 1.12 1.1Zm6.5 4.02c.44 0 .79-.35.79-.78a.79.79 0 0 0-.79-.78.79.79 0 0 0-.79.78c0 .43.36.78.8.78Zm.96-2.15a.35.35 0 1 0 0-.69c-.2 0-.35.15-.35.34 0 .2.16.35.35.35Z" fill="#111"></path><path d="M45.78 20.99a57.14 57.14 0 0 0-5.08 5.17 31.74 31.74 0 0 1-5.3 4.86c-.22-.53-1.63-1.51-1.63-1.51s-3.13-2.13-5.19-3.8a31.74 31.74 0 0 1-3.13-2.98l-2-.11a22.57 22.57 0 0 0 11.98 8.76c.86-.13 3.27-1.85 5.08-3.25a57.36 57.36 0 0 0 5.98-5.86c.5-.59.89-1.26 1.14-1.98-1.14.37-1.85.7-1.85.7Z" fill="#F06351"></path><path d="m65.07 3.47-8.44 9.37-1.22-1.98 8.13-10.86 1.53 3.47Zm-2.57 13.65 5.53-4.08-.77-3.7-5.4 4.77.65 3.01Zm-2.72 31.85 6.12 3.16 3-2.33-6.67-2.72-2.45 1.9Zm-57.83-43.05 3.06-3.33 9.27 8.93-1.22 2.26-11.11-7.86Zm5.41 10.23-4.69-3.1-2.4 3.83 5.15 2.38 1.94-3.11Zm6.52 35.98-4.54 3.32 2.8 3.55 4-3.99-2.26-2.88Z" fill="#FDC305"></path><path d="M25.87 27.77s-3.8-1.42-5.2-1.81a3.77 3.77 0 0 0-3.99.62 5.03 5.03 0 0 0-1.72 3.82c.2.46.37.95.47 1.44.05.48-1.2.43-2 .43-.79 0-.9-1.43-.28-3.1a22.1 22.1 0 0 1 1.82-3.72c-5.44 2.82-14.97 9.33-14.97 9.33a44.6 44.6 0 0 1 8.17.24c5.24.52 4.99 4.63 4.99 4.63 1.84-.5 3.72-.88 5.62-1.1 2.11-.14 2.26 2.1 2.26 2.1l.53 3.83c.8-.87 1.69-1.65 2.64-2.34a6.07 6.07 0 0 1 4.37-1.3l-2.7-13.07Z" fill="#F06351"></path></svg><svg viewBox="0 0 118 21" fill="none" id="logotext"><path d="M1.42 19.22a7.92 7.92 0 0 1-1.4-5.06v-7.32c-.13-1.8.36-3.6 1.38-5.1.93-1.17 2.52-1.75 4.76-1.74 2.25 0 3.77.52 4.56 1.53a6.43 6.43 0 0 1 1.33 4.38v1.71h-4.14v-1.86c0-.49-.05-.98-.13-1.46a1.62 1.62 0 0 0-.47-.93 1.58 1.58 0 0 0-1.16-.36c-.3-.04-.6 0-.87.14a1.4 1.4 0 0 0-.63.6 5.2 5.2 0 0 0-.34 2.14v9.28a4.5 4.5 0 0 0 .39 2.14 1.52 1.52 0 0 0 1.45.71 1.33 1.33 0 0 0 1.4-.72c.25-.68.35-1.4.32-2.13v-1.95h4.14v1.69a6.93 6.93 0 0 1-1.23 4.5c-.88 1.06-2.4 1.59-4.57 1.59-2.16 0-3.85-.59-4.79-1.78Zm16.28-18.94h4.76l4 20.48h-3.94l-.72-4.53h-3.32l-.8 4.5h-4.01l4.04-20.45Zm3.66 13.38-1.26-8.23-1.25 8.23h2.51Zm8.18-10.3h-3.25v-3.08h10.75v3.08h-3.21v17.37h-4.3l.01-17.37Z" fill="#111"></path><path d="M45.46.28h8.15v2.13h-5.21v6.75h4.23v2.02h-4.23v7.5h5.26v2.05h-8.2v-20.45Zm10.56 0h2l6.02 13.58v-13.58h2.45v20.48h-1.88l-6.01-13.96v13.93h-2.49l-.09-20.45Zm13.7 0h8.14v2.13h-5.21v6.75h4.27v2.02h-4.23v7.5h5.23v2.05h-8.2v-20.45Zm10.55 0h4.23a7.16 7.16 0 0 1 4.68 1.28c1 .85 1.5 2.23 1.5 4.15 0 2.6-.87 4.2-2.6 4.77l3 10.25h-2.84l-2.76-9.6h-2.27v9.6h-2.94v-20.45Zm4.01 8.78c.97.09 1.93-.18 2.7-.74a3.45 3.45 0 0 0 .83-2.65 5.56 5.56 0 0 0-.3-1.95 1.84 1.84 0 0 0-1-1.05 4.89 4.89 0 0 0-2.05-.34h-1.29v6.77l1.11-.04Zm10.34 10.16a8.82 8.82 0 0 1-1.27-5.22v-6.82c-.03-1.32.13-2.64.5-3.9.3-.96.9-1.79 1.75-2.35a6.05 6.05 0 0 1 3.36-.82 5.41 5.41 0 0 1 4.19 1.44 6.69 6.69 0 0 1 1.28 4.51v.76h-2.75v-.63c.02-.76-.05-1.51-.18-2.26a2 2 0 0 0-.77-1.2 3.07 3.07 0 0 0-1.72-.4c-.65-.05-1.3.14-1.81.55-.42.38-.69.89-.77 1.44-.13.8-.19 1.61-.17 2.43v7.6a7.15 7.15 0 0 0 .59 3.36 2.83 2.83 0 0 0 2.26 1.03 2.9 2.9 0 0 0 2.22-1.11c.48-1.13.69-2.35.6-3.56v-1.44h-2.66v-2.02h5.31v10.12h-1.81l-.3-2.35a3.6 3.6 0 0 1-1.4 1.93 3.7 3.7 0 0 1-2.33.67 4.79 4.79 0 0 1-4.12-1.76Zm16.05-5.71-4.53-13.23h2.72l3.22 9.87 3.17-9.87h2.75l-4.5 13.23v7.22h-2.81l-.02-7.22Z" fill="#444"></path></svg><svg viewBox="0 0 24 24" fill="none" id="menu-mobile"><path stroke="#000" stroke-width="2" d="M0 3h24m-24 8h24m-24 8h24"></path></svg><svg viewBox="0 0 71 227" fill="none" id="one"><path d="M40.37 227v-187.6c-.18.19-2.33.75-6.44 1.68-3.92.93-8.4 1.87-13.44 2.8-5.04.93-9.52 1.77-13.44 2.52s-5.97 1.12-6.16 1.12v-22.68c3.18-.75 6.82-1.77 10.92-3.08 4.3-1.3 8.59-2.9 12.88-4.76a63.87 63.87 0 0 0 12.6-7 43.3 43.3 0 0 0 10.36-9.8h22.68v226.8h-29.96Z" fill="#F2F2F2"></path></svg><svg viewBox="0 0 720 694" fill="none" id="rectangle"><path fill="#68B738" fill-opacity=".85" d="M0 0h720v694h-720z"></path></svg><svg viewBox="0 0 28 22" fill="none" id="telegram"><path fill-rule="evenodd" clip-rule="evenodd" d="M23.46 3.15c.18.15.27.38.23.61l-2.63 15.76a.66.66 0 0 1-1.01.44l-7.88-5.25a.66.66 0 0 1-.15-.96l2.61-3.26-4.36 2.9a.66.66 0 0 1-.65.05l-5.26-2.63a.66.66 0 0 1 .08-1.2l18.38-6.57a.66.66 0 0 1 .64.11Zm-17.13 7.17 3.53 1.77 7.56-5.04a.66.66 0 0 1 .88.96l-4.8 6 6.43 4.3 2.28-13.66-15.88 5.67Z" fill="#666"></path></svg><svg viewBox="0 0 112 232" fill="none" id="three"><path d="M55.92 231.52c-12.32 0-22.59-2.33-30.8-7a44.06 44.06 0 0 1-18.48-20.16c-4.1-8.77-6.16-19.13-6.16-31.08v-7.56h29.68v5.04a88.2 88.2 0 0 0 2.24 18.2c1.5 5.41 4.01 9.7 7.56 12.88 3.73 3.17 9.05 4.76 15.96 4.76 7.28 0 12.79-1.68 16.52-5.04 3.73-3.55 6.25-8.5 7.56-14.84 1.3-6.35 1.96-13.63 1.96-21.84 0-11.95-2.24-21.65-6.72-29.12-4.3-7.65-11.95-11.85-22.96-12.6a7.27 7.27 0 0 0-2.24-.28h-1.96v-29.96h3.92c10.64-.37 18.3-3.17 22.96-8.4 4.67-5.23 7-13.9 7-26.04 0-10.27-1.77-18.48-5.32-24.64-3.36-6.16-10.17-9.24-20.44-9.24-10.27 0-17.08 3.45-20.44 10.36-3.36 6.72-5.23 15.4-5.6 26.04v4.76h-29.68v-7.56c0-12.13 2.05-22.5 6.16-31.08a44.32 44.32 0 0 1 18.48-19.88c8.4-4.67 18.76-7 31.08-7 12.5 0 22.87 2.33 31.08 7a44.05 44.05 0 0 1 18.48 20.16c4.1 8.59 6.16 18.95 6.16 31.08 0 13.63-2.98 24.55-8.96 32.76-5.79 8.21-13.63 13.81-23.52 16.8 6.9 2.05 12.7 5.6 17.36 10.64 4.86 5.04 8.59 11.48 11.2 19.32 2.61 7.65 3.92 16.61 3.92 26.88 0 13.44-1.86 25.2-5.6 35.28-3.73 9.9-9.7 17.64-17.92 23.24-8.21 5.41-19.04 8.12-32.48 8.12Z" fill="#F2F2F2"></path></svg><svg viewBox="0 0 113 229" fill="none" id="two"><path d="M.62 229v-21.28l57.68-89.88c4.3-6.72 8.22-12.97 11.76-18.76a86.72 86.72 0 0 0 8.96-18.2c2.43-6.53 3.64-14 3.64-22.4 0-10.45-1.68-18.67-5.04-24.64-3.36-5.97-9.24-8.96-17.64-8.96-7.09 0-12.6 1.96-16.52 5.88s-6.62 9.05-8.12 15.4a89.09 89.09 0 0 0-2.24 20.44v7.56h-29.96v-7.84c0-13.63 1.78-25.3 5.32-35 3.74-9.9 9.62-17.55 17.64-22.96 8.22-5.41 19.04-8.12 32.48-8.12 18.3 0 31.92 5.23 40.88 15.68 8.97 10.27 13.45 24.55 13.45 42.84 0 9.7-1.22 18.2-3.64 25.48a95.62 95.62 0 0 1-8.96 20.44 412.22 412.22 0 0 1-12.33 19.6l-52.08 79.52h71.69v25.2h-106.97Z" fill="#F2F2F2"></path></svg><svg viewBox="0 0 28 22" fill="none" id="vkontakte"><path d="M1 5.34c0-.86.52-1.32 1.55-1.38l3.97.02c.26 0 .44.13.53.38.4 1.26.86 2.34 1.37 3.25.5.92 1.17 1.97 1.99 3.16.07.15.18.23.34.23.13 0 .22-.06.3-.18l.07-.28.03-4.35c0-.3-.07-.5-.23-.6-.15-.1-.43-.18-.83-.23-.32-.05-.48-.23-.48-.55 0-.07 0-.12.02-.15.38-1.09 1.44-1.63 3.2-1.63l1.5-.03c.67 0 1.23.16 1.67.48.44.32.67.82.67 1.5v5.72c.12.08.24.12.34.12.27 0 .5-.15.7-.45 1.95-2.58 3-4.31 3.17-5.18a.3.3 0 0 1 .05-.13c.12-.25.33-.47.61-.65.29-.19.53-.31.75-.38a.55.55 0 0 1 .24-.05h4.13l.26.03c.36 0 .63.16.83.47.07.1.12.21.15.33a2.4 2.4 0 0 1 .06.55v.18a6.11 6.11 0 0 1-.94 2.2 23.4 23.4 0 0 1-1.93 2.53c-.79.9-1.27 1.5-1.47 1.78a.93.93 0 0 0-.24.56c0 .13.07.28.21.45l3.9 4.63c.2.26.31.56.31.88 0 .38-.16.7-.48.95-.32.25-.7.4-1.14.43l-.46.02h-4.04c-.02 0-.06 0-.11.02a.86.86 0 0 1-.1.01c-.4 0-.76-.16-1.1-.48-.12-.13-.96-1.12-2.5-2.97a1.39 1.39 0 0 0-.38-.32 38.47 38.47 0 0 0-.53 2.24l-.08.42a1.4 1.4 0 0 1-1.12 1.06l-.37.02h-2.61c-1.48 0-2.95-.63-4.41-1.9a19.3 19.3 0 0 1-3.96-4.95 47.51 47.51 0 0 1-3.28-7.05 1.92 1.92 0 0 1-.13-.73Zm16.01 6.51c-.37 0-.7-.1-1.01-.29a.9.9 0 0 1-.45-.79v-5.78c0-.34-.1-.58-.27-.72-.18-.14-.49-.21-.93-.21l-1.52.05c-.76 0-1.34.12-1.73.37.78.36 1.17.93 1.17 1.71v4.43a1.5 1.5 0 0 1-.53 1.04 1.6 1.6 0 0 1-1.07.42c-.53 0-.94-.24-1.22-.73a26.16 26.16 0 0 1-3.1-5.63l-.23-.66-3.55-.02c-.23 0-.36.01-.38.03-.03.03-.04.1-.04.22 0 .15.01.3.05.48l.56 1.4c1.49 3.64 3.11 6.51 4.86 8.6 1.75 2.1 3.47 3.15 5.16 3.15h2.66c.1 0 .19-.03.24-.09.05-.06.1-.17.13-.34l.06-.25.5-2.21c.15-.3.27-.5.38-.6.2-.2.42-.28.69-.28.43 0 .86.24 1.3.73l2.27 2.71c.14.22.3.33.45.33h4.4c.53 0 .8-.13.8-.38a.47.47 0 0 0-.08-.25l-3.87-4.55c-.3-.35-.45-.73-.45-1.13 0-.4.14-.8.43-1.16.23-.34.68-.9 1.34-1.67.67-.78 1.25-1.51 1.75-2.19.5-.68.82-1.3.98-1.85l.08-.33a.37.37 0 0 1-.02-.16.54.54 0 0 0-.03-.19h-4.18c-.27.1-.48.25-.64.45l-.16.48c-.45 1.16-1.6 2.94-3.5 5.36-.36.33-.8.5-1.3.5Z" fill="#666"></path></svg><svg viewBox="0 0 162 72" fill="none" id="weight"><path fill-rule="evenodd" clip-rule="evenodd" d="M159 1h-156a2 2 0 0 0-2 2v66c0 1.1.9 2 2 2h7v1h-7a3 3 0 0 1-3-3v-66a3 3 0 0 1 3-3h156a3 3 0 0 1 3 3v66a3 3 0 0 1-3 3h-7v-1h7a2 2 0 0 0 2-2v-66a2 2 0 0 0-2-2Z" fill="#CDCDCD"></path></svg><svg viewBox="0 0 28 22" fill="none" id="youtube"><path d="m17.85 10.8-5.24-3.5a.65.65 0 0 0-1.01.55v6.98a.65.65 0 0 0 1.01.54l5.24-3.49a.65.65 0 0 0 0-1.09Zm-4.94 2.8v-4.53l3.4 2.27-3.4 2.27Zm12.48-8.56a2.4 2.4 0 0 0-1.45-1.63c-3.72-1.43-9.69-1.41-9.94-1.41s-6.22-.02-9.94 1.4a2.4 2.4 0 0 0-1.45 1.64 25.32 25.32 0 0 0-.61 6.3c0 3.26.33 5.22.61 6.3a2.4 2.4 0 0 0 1.45 1.63c3.72 1.43 9.69 1.4 9.94 1.4h.08c.75 0 6.31-.04 9.86-1.4a2.4 2.4 0 0 0 1.45-1.64c.28-1.07.61-3.03.61-6.3 0-3.25-.33-5.22-.61-6.29Zm-1.27 12.27a1.1 1.1 0 0 1-.65.74c-3.5 1.34-9.4 1.32-9.47 1.32-.07 0-5.98.02-9.47-1.32a1.09 1.09 0 0 1-.65-.74c-.27-1-.57-2.85-.57-5.97 0-3.12.3-4.97.57-5.97a1.1 1.1 0 0 1 .65-.74c3.5-1.34 9.4-1.32 9.47-1.32.07 0 5.98-.02 9.47 1.32a1.1 1.1 0 0 1 .65.74c.27 1 .57 2.85.57 5.97 0 3.12-.3 4.96-.57 5.97Z" fill="#666"></path></svg><svg fill="none" viewBox="0 0 27 35" id="Лого-академии"><g clip-path="url(#Лого-академии_0)"><path d="m13.64.52-.14-.02-13.5 1.4v24.61l13.5 7.99 13.5-7.99v-24.6l-13.36-1.4Zm11.6 25-11.74 6.94-11.73-6.95v-10.08l11.68 6.92.02 1.25-8.02-4.74v1.22l8.04 4.81.02 1.29-8.05-4.76v1.22l8.04 4.81 8.12-4.83v-5.21l3.62-2.15v10.26Zm0-11.57-3.23 1.88-1.48.88-7.06-4.19-.01 1.22 6.04 3.58-.06.03-.13.07-.86.5-4.98-2.95-.01 1.22 3.93 2.33-.93.61-.02.01-2.97-1.74-.01 1.23 1.94 1.13-1.98 1.19-11.62-6.87 11.64-6.96 11.8 6.83Zm0-1.22-11.8-6.92-11.67 6.91v-9.23l11.73-1.23 11.73 1.23v9.24Z" fill="#666"></path></g><defs><clipPath id="Лого-академии_0"><path fill="#fff" transform="translate(0 .5)" d="M0 0h27v34h-27z"></path></clipPath></defs></svg></svg>